<svg width="80" height="75" viewBox="0 0 80 75" fill="none" xmlns="http://www.w3.org/2000/svg">
<path d="M20 65V70C20 71.3261 19.4732 72.5979 18.5355 73.5355C17.5979 74.4732 16.3261 75 15 75C13.6739 75 12.4021 74.4732 11.4645 73.5355C10.5268 72.5979 10 71.3261 10 70V65H20ZM70 65V70C70 71.3261 69.4732 72.5979 68.5355 73.5355C67.5979 74.4732 66.3261 75 65 75C63.6739 75 62.4021 74.4732 61.4645 73.5355C60.5268 72.5979 60 71.3261 60 70V65H70ZM59.3 2.40551e-07C62.1904 -0.000566563 64.9916 1.00054 67.2269 2.83292C69.4623 4.66529 70.9935 7.21569 71.56 10.05L72.545 15H76.25C77.1562 15 78.0317 15.3282 78.7147 15.9238C79.3976 16.5195 79.8418 17.3422 79.965 18.24L80 18.75C80 19.6562 79.6718 20.5317 79.0762 21.2147C78.4805 21.8976 77.6578 22.3418 76.76 22.465L76.25 22.5H74.045L74.605 25.3C76.1619 25.7553 77.5293 26.7031 78.502 28.0012C79.4747 29.2993 80.0003 30.8779 80 32.5V52.5C80 54.4891 79.2098 56.3968 77.8033 57.8033C76.3968 59.2098 74.4891 60 72.5 60H7.5C5.51088 60 3.60322 59.2098 2.1967 57.8033C0.790177 56.3968 1.42234e-07 54.4891 1.42234e-07 52.5V32.5C-0.000315671 30.8779 0.525295 29.2993 1.498 28.0012C2.4707 26.7031 3.83807 25.7553 5.395 25.3L5.95 22.5H3.75C2.75544 22.5 1.80161 22.1049 1.09835 21.4017C0.395088 20.6984 1.42234e-07 19.7446 1.42234e-07 18.75C1.42234e-07 17.7554 0.395088 16.8016 1.09835 16.0983C1.80161 15.3951 2.75544 15 3.75 15H7.45L8.44 10.05C9.00651 7.21569 10.5377 4.66529 12.7731 2.83292C15.0084 1.00054 17.8096 -0.000566563 20.7 2.40551e-07H59.3ZM20 37.5C18.6739 37.5 17.4021 38.0268 16.4645 38.9645C15.5268 39.9021 15 41.1739 15 42.5C15 43.8261 15.5268 45.0979 16.4645 46.0355C17.4021 46.9732 18.6739 47.5 20 47.5C21.3261 47.5 22.5979 46.9732 23.5355 46.0355C24.4732 45.0979 25 43.8261 25 42.5C25 41.1739 24.4732 39.9021 23.5355 38.9645C22.5979 38.0268 21.3261 37.5 20 37.5ZM60 37.5C58.6739 37.5 57.4021 38.0268 56.4645 38.9645C55.5268 39.9021 55 41.1739 55 42.5C55 43.8261 55.5268 45.0979 56.4645 46.0355C57.4021 46.9732 58.6739 47.5 60 47.5C61.3261 47.5 62.5979 46.9732 63.5355 46.0355C64.4732 45.0979 65 43.8261 65 42.5C65 41.1739 64.4732 39.9021 63.5355 38.9645C62.5979 38.0268 61.3261 37.5 60 37.5ZM59.3 5H20.7C18.9659 4.99989 17.2854 5.60066 15.9445 6.70007C14.6035 7.79947 13.6849 9.32958 13.345 11.03L10.545 25H69.45L66.655 11.03C66.3153 9.33042 65.3974 7.80096 64.0575 6.70165C62.7175 5.60234 61.0382 5.00105 59.305 5" fill="#5E95CD"/>
</svg>
