<svg width="80" height="80" viewBox="0 0 80 80" fill="none" xmlns="http://www.w3.org/2000/svg">
<path fill-rule="evenodd" clip-rule="evenodd" d="M16.7742 2C13.3863 2 10.1371 3.12921 7.74147 5.13921C5.34585 7.14922 4 9.87537 4 12.7179V67.2821C4 70.1246 5.34585 72.8508 7.74147 74.8608C10.1371 76.8708 13.3863 78 16.7742 78H63.2258C66.6137 78 69.8629 76.8708 72.2585 74.8608C74.6542 72.8508 76 70.1246 76 67.2821V24.2855C76 22.8006 75.424 21.3586 74.3556 20.1737L60.4294 4.70872C59.6717 3.86733 58.6917 3.18482 57.5666 2.71482C56.4414 2.24482 55.2017 2.00014 53.9448 2H16.7742ZM10.9677 12.7179C10.9677 10.0287 13.569 7.84615 16.7742 7.84615H50.4516V24.9832C50.4516 26.5967 52.0124 27.9063 53.9355 27.9063H69.0323V67.2821C69.0323 69.9713 66.431 72.1538 63.2258 72.1538H16.7742C13.569 72.1538 10.9677 69.9713 10.9677 67.2821V12.7179Z" fill="#5E95CD"/>
<path d="M52.5 43.3334C52.5 42.6703 52.2366 42.0344 51.7678 41.5656C51.2989 41.0968 50.663 40.8334 50 40.8334H30C29.337 40.8334 28.7011 41.0968 28.2322 41.5656C27.7634 42.0344 27.5 42.6703 27.5 43.3334C27.5 43.9964 27.7634 44.6323 28.2322 45.1011C28.7011 45.57 29.337 45.8334 30 45.8334H50C50.663 45.8334 51.2989 45.57 51.7678 45.1011C52.2366 44.6323 52.5 43.9964 52.5 43.3334ZM52.5 56.6667C52.5 56.0037 52.2366 55.3678 51.7678 54.8989C51.2989 54.4301 50.663 54.1667 50 54.1667H30C29.337 54.1667 28.7011 54.4301 28.2322 54.8989C27.7634 55.3678 27.5 56.0037 27.5 56.6667C27.5 57.3297 27.7634 57.9656 28.2322 58.4345C28.7011 58.9033 29.337 59.1667 30 59.1667H50C50.663 59.1667 51.2989 58.9033 51.7678 58.4345C52.2366 57.9656 52.5 57.3297 52.5 56.6667Z" fill="#5E95CD"/>
</svg>
