<svg width="25" height="24" viewBox="0 0 25 24" fill="none" xmlns="http://www.w3.org/2000/svg">
<path d="M21.3783 0C22.0855 0 22.7638 0.280951 23.2639 0.781048C23.764 1.28115 24.0449 1.95942 24.0449 2.66667V21.3333C24.0449 22.0406 23.764 22.7189 23.2639 23.219C22.7638 23.719 22.0855 24 21.3783 24H2.71159C2.00434 24 1.32607 23.719 0.82597 23.219C0.325873 22.7189 0.0449219 22.0406 0.0449219 21.3333V2.66667C0.0449219 1.95942 0.325873 1.28115 0.82597 0.781048C1.32607 0.280951 2.00434 0 2.71159 0H21.3783ZM20.7116 20.6667V13.6C20.7116 12.4472 20.2536 11.3416 19.4385 10.5264C18.6233 9.71128 17.5177 9.25333 16.3649 9.25333C15.2316 9.25333 13.9116 9.94667 13.2716 10.9867V9.50667H9.55159V20.6667H13.2716V14.0933C13.2716 13.0667 14.0983 12.2267 15.1249 12.2267C15.62 12.2267 16.0948 12.4233 16.4449 12.7734C16.7949 13.1235 16.9916 13.5983 16.9916 14.0933V20.6667H20.7116ZM5.21826 7.41333C5.81234 7.41333 6.38209 7.17733 6.80218 6.75725C7.22226 6.33717 7.45826 5.76742 7.45826 5.17333C7.45826 3.93333 6.45826 2.92 5.21826 2.92C4.62063 2.92 4.04749 3.1574 3.62491 3.57999C3.20233 4.00257 2.96492 4.57571 2.96492 5.17333C2.96492 6.41333 3.97826 7.41333 5.21826 7.41333ZM7.07159 20.6667V9.50667H3.37826V20.6667H7.07159Z" fill="white"/>
</svg>
