<svg width="25" height="24" viewBox="0 0 25 24" fill="none" xmlns="http://www.w3.org/2000/svg">
<path d="M20.617 21C18.5337 21 16.4753 20.546 14.442 19.638C12.4087 18.73 10.5587 17.4423 8.89199 15.775C7.22533 14.1077 5.93799 12.2577 5.02999 10.225C4.12199 8.19233 3.66766 6.134 3.66699 4.05C3.66699 3.75 3.76699 3.5 3.96699 3.3C4.16699 3.1 4.41699 3 4.71699 3H8.76699C9.00033 3 9.20866 3.07933 9.39199 3.238C9.57533 3.39667 9.68366 3.584 9.71699 3.8L10.367 7.3C10.4003 7.56667 10.392 7.79167 10.342 7.975C10.292 8.15833 10.2003 8.31667 10.067 8.45L7.64199 10.9C7.97533 11.5167 8.37099 12.1123 8.82899 12.687C9.28699 13.2617 9.79133 13.816 10.342 14.35C10.8587 14.8667 11.4003 15.346 11.967 15.788C12.5337 16.23 13.1337 16.634 13.767 17L16.117 14.65C16.267 14.5 16.463 14.3877 16.705 14.313C16.947 14.2383 17.1843 14.2173 17.417 14.25L20.867 14.95C21.1003 15.0167 21.292 15.1377 21.442 15.313C21.592 15.4883 21.667 15.684 21.667 15.9V19.95C21.667 20.25 21.567 20.5 21.367 20.7C21.167 20.9 20.917 21 20.617 21ZM6.69199 9L8.34199 7.35L7.91699 5H5.69199C5.77533 5.68333 5.89199 6.35833 6.04199 7.025C6.19199 7.69167 6.40866 8.35 6.69199 9ZM15.642 17.95C16.292 18.2333 16.9547 18.4583 17.63 18.625C18.3053 18.7917 18.9843 18.9 19.667 18.95V16.75L17.317 16.275L15.642 17.95Z" fill="white"/>
</svg>
