<svg width="80" height="80" viewBox="0 0 80 80" fill="none" xmlns="http://www.w3.org/2000/svg">
<path d="M72.6833 77C64.1185 77 55.6565 75.1336 47.2972 71.4007C38.938 67.6678 31.3324 62.374 24.4806 55.5194C17.6287 48.6649 12.3363 41.0593 8.60344 32.7028C4.87056 24.3463 3.00274 15.8842 3 7.31667C3 6.08333 3.41111 5.05556 4.23333 4.23333C5.05556 3.41111 6.08333 3 7.31667 3H23.9667C24.9259 3 25.7824 3.32615 26.5361 3.97844C27.2898 4.63074 27.7352 5.40089 27.8722 6.28889L30.5444 20.6778C30.6815 21.7741 30.6472 22.6991 30.4417 23.4528C30.2361 24.2065 29.8593 24.8574 29.3111 25.4056L19.3417 35.4778C20.712 38.013 22.3387 40.4618 24.2216 42.8243C26.1044 45.1869 28.1778 47.4658 30.4417 49.6611C32.5657 51.7852 34.7926 53.7558 37.1222 55.5729C39.4519 57.39 41.9185 59.0509 44.5222 60.5556L54.1833 50.8944C54.8 50.2778 55.6058 49.816 56.6007 49.509C57.5956 49.202 58.5713 49.1157 59.5278 49.25L73.7111 52.1278C74.6704 52.4019 75.4583 52.8993 76.075 53.6201C76.6917 54.3409 77 55.1453 77 56.0333V72.6833C77 73.9167 76.5889 74.9445 75.7667 75.7667C74.9445 76.5889 73.9167 77 72.6833 77ZM15.4361 27.6667L22.2194 20.8833L20.4722 11.2222H11.325C11.6676 14.0315 12.1472 16.8065 12.7639 19.5472C13.3806 22.288 14.2713 24.9944 15.4361 27.6667ZM52.2306 64.4611C54.9028 65.6259 57.6271 66.5509 60.4034 67.2361C63.1798 67.9213 65.9713 68.3667 68.7778 68.5722V59.5278L59.1167 57.575L52.2306 64.4611Z" fill="#5E95CD"/>
</svg>
