<svg width="16" height="16" viewBox="0 0 16 16" fill="none" xmlns="http://www.w3.org/2000/svg">
<path d="M10.4743 8.47325C11.1279 7.95903 11.605 7.25387 11.8391 6.45588C12.0733 5.6579 12.0529 4.80676 11.7808 4.0209C11.5087 3.23503 10.9985 2.55352 10.321 2.07116C9.64357 1.5888 8.83261 1.32959 8.00097 1.32959C7.16934 1.32959 6.35838 1.5888 5.68093 2.07116C5.00347 2.55352 4.4932 3.23503 4.22112 4.0209C3.94903 4.80676 3.92865 5.6579 4.16282 6.45588C4.39698 7.25387 4.87405 7.95903 5.52764 8.47325C4.40769 8.92195 3.4305 9.66615 2.70024 10.6265C1.96997 11.5869 1.51402 12.7275 1.38097 13.9266C1.37134 14.0141 1.37905 14.1027 1.40366 14.1873C1.42826 14.2719 1.46929 14.3508 1.52438 14.4195C1.63565 14.5582 1.7975 14.6471 1.97431 14.6666C2.15112 14.686 2.32841 14.6344 2.46719 14.5232C2.60597 14.4119 2.69486 14.2501 2.71431 14.0733C2.8607 12.77 3.4821 11.5665 4.45979 10.6924C5.43748 9.81843 6.70291 9.33527 8.01431 9.33527C9.32571 9.33527 10.5911 9.81843 11.5688 10.6924C12.5465 11.5665 13.1679 12.77 13.3143 14.0733C13.3324 14.2371 13.4106 14.3884 13.5337 14.4979C13.6568 14.6075 13.8162 14.6676 13.981 14.6666H14.0543C14.2291 14.6465 14.3888 14.5581 14.4987 14.4208C14.6086 14.2834 14.6597 14.1082 14.641 13.9333C14.5073 12.7307 14.0489 11.5872 13.3149 10.6254C12.5809 9.66353 11.5989 8.91957 10.4743 8.47325ZM8.00097 7.99992C7.47356 7.99992 6.95799 7.84352 6.51945 7.55051C6.08092 7.25749 5.73913 6.84101 5.5373 6.35374C5.33546 5.86647 5.28265 5.3303 5.38555 4.81301C5.48844 4.29573 5.74242 3.82058 6.11536 3.44764C6.4883 3.0747 6.96345 2.82072 7.48073 2.71783C7.99802 2.61493 8.53419 2.66774 9.02146 2.86957C9.50873 3.07141 9.92521 3.4132 10.2182 3.85173C10.5112 4.29026 10.6676 4.80584 10.6676 5.33325C10.6676 6.0405 10.3867 6.71877 9.88659 7.21887C9.3865 7.71897 8.70822 7.99992 8.00097 7.99992Z" fill="#717182"/>
</svg>
