<svg width="20" height="22" viewBox="0 0 20 22" fill="none" xmlns="http://www.w3.org/2000/svg">
<path fill-rule="evenodd" clip-rule="evenodd" d="M10 0.0927734C4.477 0.0927734 0 4.56977 0 10.0928C0 11.9828 0.525 13.7528 1.438 15.2608L0.546 18.2928C0.494785 18.4669 0.491415 18.6515 0.536244 18.8274C0.581074 19.0032 0.672448 19.1637 0.800759 19.292C0.929071 19.4203 1.08958 19.5117 1.26542 19.5565C1.44125 19.6014 1.62592 19.598 1.8 19.5468L4.832 18.6548C6.39074 19.5977 8.17824 20.0951 10 20.0928C15.523 20.0928 20 15.6158 20 10.0928C20 4.56977 15.523 0.0927734 10 0.0927734ZM7.738 12.3558C9.761 14.3778 11.692 14.6448 12.374 14.6698C13.411 14.7078 14.421 13.9158 14.814 12.9968C14.8632 12.8824 14.881 12.7569 14.8655 12.6333C14.85 12.5097 14.8019 12.3925 14.726 12.2938C14.178 11.5938 13.437 11.0908 12.713 10.5908C12.5619 10.486 12.3761 10.4439 12.1946 10.4734C12.0131 10.5029 11.8502 10.6016 11.74 10.7488L11.14 11.6638C11.1083 11.7128 11.0591 11.7479 11.0025 11.762C10.9459 11.7761 10.886 11.7682 10.835 11.7398C10.428 11.5068 9.835 11.1108 9.409 10.6848C8.983 10.2588 8.611 9.69277 8.402 9.31177C8.37672 9.26323 8.36957 9.20726 8.38185 9.15392C8.39413 9.10058 8.42503 9.05337 8.469 9.02077L9.393 8.33477C9.52525 8.22037 9.61063 8.06118 9.63277 7.88772C9.65491 7.71426 9.61226 7.53873 9.513 7.39477C9.065 6.73877 8.543 5.90477 7.786 5.35177C7.6881 5.28143 7.57369 5.23757 7.45385 5.22443C7.33402 5.21129 7.21282 5.22932 7.102 5.27677C6.182 5.67077 5.386 6.68077 5.424 7.71977C5.449 8.40177 5.716 10.3328 7.738 12.3558Z" fill="#0F9C14"/>
</svg>
