<svg width="25" height="25" viewBox="0 0 25 25" fill="none" xmlns="http://www.w3.org/2000/svg">
<path fill-rule="evenodd" clip-rule="evenodd" d="M16.264 4.5C16.8211 4.50002 17.3671 4.65513 17.841 4.94797C18.3148 5.2408 18.6978 5.65979 18.947 6.158L20.333 8.929C20.577 8.829 20.817 8.721 21.053 8.605C21.2904 8.48645 21.5651 8.46705 21.8168 8.55106C22.0685 8.63508 22.2764 8.81563 22.395 9.053C22.5136 9.29037 22.533 9.56511 22.4489 9.81678C22.3649 10.0685 22.1844 10.2764 21.947 10.395C21.7066 10.502 21.4649 10.606 21.222 10.707L22.183 12.63C22.3916 13.047 22.5001 13.5068 22.5 13.973V16.5C22.5 16.9221 22.4109 17.3394 22.2386 17.7247C22.0663 18.11 21.8146 18.4546 21.5 18.736V20C21.5 20.3978 21.342 20.7794 21.0607 21.0607C20.7794 21.342 20.3978 21.5 20 21.5C19.6022 21.5 19.2206 21.342 18.9393 21.0607C18.658 20.7794 18.5 20.3978 18.5 20V19.5H6.5V20C6.5 20.3978 6.34196 20.7794 6.06066 21.0607C5.77936 21.342 5.39782 21.5 5 21.5C4.60218 21.5 4.22064 21.342 3.93934 21.0607C3.65804 20.7794 3.5 20.3978 3.5 20V18.736C2.886 18.186 2.5 17.388 2.5 16.5V13.972C2.50019 13.5065 2.60872 13.0473 2.817 12.631L3.77 10.723C3.52867 10.6217 3.29033 10.5127 3.055 10.396C2.81883 10.2759 2.63931 10.0678 2.55513 9.8166C2.47096 9.56538 2.48887 9.29114 2.605 9.053C2.66366 8.93543 2.74491 8.83057 2.84412 8.74442C2.94332 8.65826 3.05853 8.5925 3.18316 8.5509C3.30779 8.50929 3.4394 8.49266 3.57046 8.50194C3.70153 8.51122 3.82948 8.54624 3.947 8.605C4.18367 8.72167 4.42367 8.82967 4.667 8.929L6.053 6.159C6.30205 5.66061 6.68497 5.24141 7.15885 4.94839C7.63273 4.65538 8.17884 4.50011 8.736 4.5H16.264ZM8 13.5C7.60218 13.5 7.22064 13.658 6.93934 13.9393C6.65804 14.2206 6.5 14.6022 6.5 15C6.5 15.3978 6.65804 15.7794 6.93934 16.0607C7.22064 16.342 7.60218 16.5 8 16.5C8.39782 16.5 8.77936 16.342 9.06066 16.0607C9.34196 15.7794 9.5 15.3978 9.5 15C9.5 14.6022 9.34196 14.2206 9.06066 13.9393C8.77936 13.658 8.39782 13.5 8 13.5ZM17 13.5C16.6022 13.5 16.2206 13.658 15.9393 13.9393C15.658 14.2206 15.5 14.6022 15.5 15C15.5 15.3978 15.658 15.7794 15.9393 16.0607C16.2206 16.342 16.6022 16.5 17 16.5C17.3978 16.5 17.7794 16.342 18.0607 16.0607C18.342 15.7794 18.5 15.3978 18.5 15C18.5 14.6022 18.342 14.2206 18.0607 13.9393C17.7794 13.658 17.3978 13.5 17 13.5ZM16.264 6.5H8.736C8.57141 6.49998 8.40935 6.54058 8.26422 6.61821C8.11908 6.69583 7.99535 6.80808 7.904 6.945L7.842 7.053L6.572 9.591C8.12 10.055 10.206 10.5 12.5 10.5C14.642 10.5 16.601 10.112 18.11 9.683L18.427 9.591L17.158 7.053C17.0844 6.90581 16.9756 6.77907 16.8413 6.684C16.707 6.58893 16.5513 6.52847 16.388 6.508L16.265 6.5H16.264Z" fill="#5E95CD"/>
</svg>
