<svg width="26" height="24" viewBox="0 0 26 24" fill="none" xmlns="http://www.w3.org/2000/svg">
<g clip-path="url(#clip0_84_996)">
<path d="M12.7482 5.98039C9.54152 5.98039 6.95497 8.66798 6.95497 12C6.95497 15.3319 9.54152 18.0195 12.7482 18.0195C15.955 18.0195 18.5415 15.3319 18.5415 12C18.5415 8.66798 15.955 5.98039 12.7482 5.98039ZM12.7482 15.9135C10.676 15.9135 8.98186 14.1585 8.98186 12C8.98186 9.84151 10.6709 8.08646 12.7482 8.08646C14.8255 8.08646 16.5146 9.84151 16.5146 12C16.5146 14.1585 14.8205 15.9135 12.7482 15.9135ZM20.1297 5.73416C20.1297 6.51477 19.5248 7.13821 18.7785 7.13821C18.0272 7.13821 17.4272 6.50952 17.4272 5.73416C17.4272 4.95879 18.0323 4.33011 18.7785 4.33011C19.5248 4.33011 20.1297 4.95879 20.1297 5.73416ZM23.9668 7.15916C23.8811 5.27836 23.4676 3.61238 22.1415 2.23976C20.8205 0.867153 19.2172 0.437557 17.4071 0.343255C15.5415 0.233238 9.94993 0.233238 8.08438 0.343255C6.27934 0.432318 4.67597 0.861914 3.34993 2.23452C2.02388 3.60714 1.61548 5.27312 1.52472 7.15392C1.41884 9.09234 1.41884 14.9023 1.52472 16.8408C1.61044 18.7216 2.02388 20.3876 3.34993 21.7601C4.67597 23.1328 6.2743 23.5624 8.08438 23.6567C9.94993 23.7667 15.5415 23.7667 17.4071 23.6567C19.2172 23.5676 20.8205 23.138 22.1415 21.7601C23.4625 20.3876 23.876 18.7216 23.9668 16.8408C24.0726 14.9023 24.0726 9.09758 23.9668 7.15916ZM21.5566 18.9207C21.1634 19.9474 20.402 20.7386 19.4087 21.1525C17.9213 21.7654 14.3919 21.6239 12.7482 21.6239C11.1045 21.6239 7.57009 21.7601 6.08774 21.1525C5.0995 20.7438 4.33817 19.9528 3.93985 18.9207C3.34993 17.3752 3.48607 13.7079 3.48607 12C3.48607 10.2921 3.35497 6.61954 3.93985 5.07929C4.33313 4.05245 5.09446 3.26136 6.08774 2.84748C7.57513 2.23452 11.1045 2.37598 12.7482 2.37598C14.3919 2.37598 17.9264 2.23976 19.4087 2.84748C20.397 3.25612 21.1583 4.0472 21.5566 5.07929C22.1466 6.62479 22.0105 10.2921 22.0105 12C22.0105 13.7079 22.1466 17.3804 21.5566 18.9207Z" fill="white"/>
</g>
<defs>
<clipPath id="clip0_84_996">
<rect width="24.6009" height="23.4784" fill="white" transform="translate(0.445312 0.260742)"/>
</clipPath>
</defs>
</svg>
