<svg width="80" height="80" viewBox="0 0 80 80" fill="none" xmlns="http://www.w3.org/2000/svg">
<path d="M66.6667 67C70.3333 67 73.3333 62.95 73.3333 58V13C73.3333 8.05 70.3333 4 66.6667 4H13.3333C9.66667 4 6.66667 8.05 6.66667 13V58C6.66667 62.95 9.66667 67 13.3333 67H3.33333C1.5 67 0 69.025 0 71.5C0 73.975 1.5 76 3.33333 76H76.6667C78.5 76 80 73.975 80 71.5C80 69.025 78.5 67 76.6667 67H66.6667ZM16.6667 13H63.3333C65.1667 13 66.6667 15.025 66.6667 17.5V53.5C66.6667 55.975 65.1667 58 63.3333 58H16.6667C14.8333 58 13.3333 55.975 13.3333 53.5V17.5C13.3333 15.025 14.8333 13 16.6667 13Z" fill="#5E95CD"/>
</svg>
