<svg width="25" height="24" viewBox="0 0 25 24" fill="none" xmlns="http://www.w3.org/2000/svg">
<path d="M23 22.5H21.5C20.9179 22.5053 20.3429 22.373 19.8216 22.1141C19.3003 21.8551 18.8475 21.4768 18.5 21.0098C18.1489 21.4728 17.6953 21.8483 17.1748 22.1068C16.6544 22.3653 16.0811 22.4998 15.5 22.4998C14.9189 22.4998 14.3456 22.3653 13.8252 22.1068C13.3047 21.8483 12.8511 21.4728 12.5 21.0098C12.1489 21.4728 11.6953 21.8483 11.1748 22.1068C10.6544 22.3653 10.0811 22.4998 9.5 22.4998C8.91887 22.4998 8.34562 22.3653 7.82516 22.1068C7.30469 21.8483 6.85113 21.4728 6.5 21.0098C6.15255 21.4768 5.69974 21.8551 5.17844 22.1141C4.65714 22.373 4.08206 22.5053 3.5 22.5H2V21H3.5C4.01135 20.9699 4.50218 20.7883 4.90996 20.4783C5.31774 20.1683 5.62401 19.7439 5.78975 19.2593C5.83699 19.1089 5.93179 18.9779 6.05988 18.8861C6.18797 18.7942 6.34243 18.7465 6.5 18.75C6.6572 18.7511 6.81017 18.801 6.93771 18.893C7.06524 18.9849 7.16101 19.1142 7.21175 19.263C7.378 19.7468 7.68431 20.1702 8.09174 20.4795C8.49918 20.7887 8.98936 20.9699 9.5 21C10.0114 20.9699 10.5022 20.7883 10.91 20.4783C11.3177 20.1683 11.624 19.7439 11.7898 19.2593C11.8391 19.1102 11.9344 18.9806 12.062 18.8891C12.1896 18.7976 12.343 18.7489 12.5 18.75C12.6572 18.7511 12.8102 18.801 12.9377 18.893C13.0652 18.9849 13.161 19.1142 13.2118 19.263C13.378 19.7468 13.6843 20.1702 14.0917 20.4795C14.4992 20.7887 14.9894 20.9699 15.5 21C16.0114 20.9699 16.5022 20.7883 16.91 20.4783C17.3177 20.1683 17.624 19.7439 17.7897 19.2593C17.8402 19.1104 17.936 18.9812 18.0638 18.8898C18.1917 18.7984 18.345 18.7494 18.5021 18.7498C18.6592 18.7502 18.8123 18.8 18.9396 18.8921C19.0669 18.9842 19.1621 19.1139 19.2118 19.263C19.378 19.7468 19.6843 20.1702 20.0917 20.4795C20.4992 20.7887 20.9894 20.9699 21.5 21H23V22.5ZM21.5 4.5V7.5H19.625L18.05 5.4C17.84 5.12099 17.5682 4.89449 17.2558 4.73833C16.9435 4.58216 16.5992 4.50058 16.25 4.5H11.75C11.1534 4.5006 10.5815 4.73784 10.1597 5.15967C9.73784 5.5815 9.5006 6.15345 9.5 6.75V7.5H6.9635L6.4205 6.41475L5.6705 4.91475C5.60826 4.79019 5.51257 4.68542 5.39414 4.61216C5.27572 4.53891 5.13925 4.50007 5 4.5H2.75C2.55109 4.5 2.36032 4.57902 2.21967 4.71967C2.07902 4.86032 2 5.05109 2 5.25V9.75C2.0006 10.3466 2.23784 10.9185 2.65967 11.3403C3.0815 11.7622 3.65345 11.9994 4.25 12H9.365L8.86475 15H5.75C5.55109 15 5.36032 15.079 5.21967 15.2197C5.07902 15.3603 5 15.5511 5 15.75C5 15.9489 5.07902 16.1397 5.21967 16.2803C5.36032 16.421 5.55109 16.5 5.75 16.5H20.75C20.9489 16.5 21.1397 16.421 21.2803 16.2803C21.421 16.1397 21.5 15.9489 21.5 15.75C21.5 15.5511 21.421 15.3603 21.2803 15.2197C21.1397 15.079 20.9489 15 20.75 15H17.6353L17.135 12H17.2572C17.7499 12.0011 18.2378 11.9046 18.6929 11.716C19.1479 11.5274 19.5611 11.2505 19.9085 10.9013L21.5 9.31125V12H23V4.5H21.5ZM11 6.75C11 6.55109 11.079 6.36032 11.2197 6.21967C11.3603 6.07902 11.5511 6 11.75 6H16.25C16.3664 6 16.4813 6.02711 16.5854 6.07918C16.6896 6.13125 16.7801 6.20685 16.85 6.3L17.75 7.5H11V6.75ZM16.115 15H10.385L10.8853 12H15.6147L16.115 15ZM17.258 10.5H4.25C4.05109 10.5 3.86032 10.421 3.71967 10.2803C3.57902 10.1397 3.5 9.94891 3.5 9.75V6H4.5365L5.0795 7.08525L6.0365 9H19.6895L18.848 9.84075C18.6397 10.0503 18.3919 10.2164 18.119 10.3296C17.8461 10.4427 17.5534 10.5007 17.258 10.5Z" fill="#5E95CD"/>
</svg>
