<svg width="66" height="117" viewBox="0 0 66 117" fill="none" xmlns="http://www.w3.org/2000/svg">
<path d="M6.016 29.548C6.016 22.2093 9.04533 16.9613 15.104 13.804C17.664 12.4387 20.6507 11.6707 24.064 11.5V23.532C20.3947 23.532 17.7493 24.5133 16.128 26.476C15.4453 27.4147 15.104 28.4387 15.104 29.548H27.136V49.388L6.016 50.156V29.548Z" fill="#5E95CD"/>
<path d="M39.016 29.548C39.016 22.2093 42.0453 16.9613 48.104 13.804C50.664 12.4387 53.6507 11.6707 57.064 11.5V23.532C53.3947 23.532 50.7493 24.5133 49.128 26.476C48.4453 27.4147 48.104 28.4387 48.104 29.548H60.136V49.388L39.016 50.156V29.548Z" fill="#5E95CD"/>
</svg>
