<svg width="53" height="94" viewBox="0 0 53 94" fill="none" xmlns="http://www.w3.org/2000/svg">
<path d="M13.1674 0.921958C12.773 1.00086 4.33242 3.68289 4.33242 3.68289L20.977 8.96805C20.977 8.96805 13.5619 0.843052 13.1674 0.921958ZM17.7145 9.05477C14.8844 9.012 12.5152 9.55672 9.9332 10.2302L6.4625 22.5356C5.53262 29.0708 4.35586 35.5239 0.94043 41.2307C3.07695 56.9073 3.62363 73.2792 8.82891 87.6132C15.007 94.5227 22.2139 94.6899 30.285 89.1909C47.4445 87.3686 52.1982 74.8069 52.0564 60.4778L40.2238 32.869L21.923 9.51981C20.3828 9.21473 19.001 9.07411 17.7145 9.05477Z" fill="#5E95CD"/>
</svg>
