<svg width="84" height="84" viewBox="0 0 84 84" fill="none" xmlns="http://www.w3.org/2000/svg">
<path fill-rule="evenodd" clip-rule="evenodd" d="M59.2376 11.7L66.8626 19.325C78.0668 30.5333 83.6668 36.1333 83.6668 43.0916C83.6668 50.0541 78.0668 55.6541 66.8626 66.8583C55.6543 78.0666 50.0543 83.6666 43.0918 83.6666C36.1334 83.6666 30.5293 78.0666 19.3251 66.8625L11.7001 59.2375C5.26259 52.7958 2.04176 49.5791 0.845927 45.4C-0.354073 41.2208 0.670927 36.7833 2.72093 27.9125L3.90009 22.7958C5.62093 15.3291 6.48343 11.5958 9.03759 9.03747C11.5918 6.47913 15.3293 5.6208 22.7959 3.89996L27.9126 2.71663C36.7876 0.670798 41.2209 -0.354202 45.4001 0.841631C49.5793 2.04163 52.8001 5.26247 59.2376 11.7ZM38.4418 51.7C35.6376 48.9 35.6584 44.875 37.3376 41.6875C36.9219 41.087 36.7296 40.3599 36.7941 39.6325C36.8587 38.9051 37.1759 38.2232 37.6909 37.7053C38.2058 37.1874 38.8858 36.8662 39.6129 36.7975C40.3399 36.7288 41.0681 36.9169 41.6709 37.3291C43.0876 36.5791 44.6418 36.1791 46.1918 36.1958C47.0206 36.2035 47.8123 36.5402 48.3929 37.1317C48.9735 37.7232 49.2953 38.5212 49.2876 39.35C49.2799 40.1788 48.9432 40.9705 48.3517 41.5511C47.7602 42.1317 46.9622 42.4535 46.1334 42.4458C45.1686 42.4814 44.2568 42.8962 43.5959 43.6C41.9834 45.2125 42.4043 46.8291 42.8584 47.2833C43.3168 47.7375 44.9293 48.1583 46.5418 46.5458C49.8084 43.2791 55.4501 42.1958 59.0626 45.8083C61.8668 48.6125 61.8459 52.6375 60.1668 55.825C60.5798 56.4255 60.77 57.1516 60.7043 57.8776C60.6386 58.6035 60.3212 59.2837 59.807 59.8003C59.2928 60.317 58.6142 60.6376 57.8886 60.7068C57.163 60.776 56.436 60.5893 55.8334 60.1791C53.9637 61.205 51.7947 61.5469 49.7001 61.1458C48.8879 60.9789 48.1752 60.4962 47.7189 59.8039C47.2625 59.1116 47.0999 58.2663 47.2668 57.4541C47.4336 56.6419 47.9163 55.9292 48.6086 55.4729C49.301 55.0166 50.1462 54.8539 50.9584 55.0208C51.6959 55.175 52.8876 54.9333 53.9084 53.9125C55.5209 52.2958 55.1001 50.6833 54.6459 50.2291C54.1876 49.775 52.5751 49.3541 50.9626 50.9666C47.6959 54.2333 42.0543 55.3166 38.4418 51.7ZM33.7501 34.8875C34.5238 34.1135 35.1375 33.1947 35.5561 32.1835C35.9747 31.1724 36.1901 30.0887 36.1899 28.9943C36.1897 27.8999 35.974 26.8163 35.555 25.8053C35.136 24.7943 34.522 23.8758 33.748 23.102C32.974 22.3283 32.0552 21.7147 31.0441 21.296C30.0329 20.8774 28.9492 20.6621 27.8549 20.6623C26.7605 20.6624 25.6769 20.8782 24.6659 21.2972C23.6549 21.7161 22.7363 22.3302 21.9626 23.1041C20.4 24.6673 19.5224 26.7871 19.5228 28.9973C19.5232 31.2075 20.4016 33.327 21.9647 34.8895C23.5278 36.4521 25.6476 37.3297 27.8578 37.3293C30.068 37.329 32.1875 36.4506 33.7501 34.8875Z" fill="#5E95CD"/>
</svg>
