<svg width="100" height="100" viewBox="0 0 100 100" fill="none" xmlns="http://www.w3.org/2000/svg">
<path d="M49.7119 6C52.8453 6 55.9284 6.78913 58.6768 8.29395C61.0242 9.57925 63.0615 11.3527 64.6582 13.4873C67.3099 13.0921 70.0212 13.2712 72.6064 14.0205C75.6301 14.8969 78.3833 16.5239 80.6094 18.75C82.8353 20.976 84.4625 23.7294 85.3389 26.7529C86.0879 29.3373 86.2649 32.0474 85.8701 34.6982C88.0057 36.2951 89.7797 38.3335 91.0654 40.6816C92.5703 43.43 93.3593 46.5131 93.3594 49.6465C93.3594 52.7798 92.5702 55.863 91.0654 58.6113C89.7797 60.9595 88.0047 62.9969 85.8691 64.5938C86.2621 67.2408 86.0853 69.9467 85.3379 72.5273C84.4636 75.546 82.8409 78.2949 80.6211 80.5195C78.4011 82.7442 75.6547 84.3733 72.6377 85.2539C70.0589 86.0066 67.3536 86.1891 64.7061 85.8018C63.1098 87.9468 61.0699 89.7305 58.7168 91.0225C55.9639 92.5339 52.8739 93.3261 49.7334 93.3262C46.5927 93.3262 43.5021 92.534 40.749 91.0225C38.3967 89.7309 36.3568 87.9488 34.7607 85.8047C32.1152 86.1968 29.4111 86.0184 26.832 85.2715C23.8132 84.3972 21.0635 82.7756 18.8389 80.5557C16.6142 78.3356 14.9861 75.5893 14.1055 72.5723C13.3531 69.9944 13.1689 67.2902 13.5557 64.6436C11.4025 63.0483 9.61204 61.0062 8.31445 58.6494C6.79619 55.8917 6 52.7945 6 49.6465C6.00004 46.4984 6.79612 43.4013 8.31445 40.6436C9.61218 38.2865 11.4022 36.2437 13.5557 34.6484C13.1692 32.0022 13.3532 29.2981 14.1055 26.7207C14.9861 23.7039 16.6143 20.9582 18.8389 18.7383C21.0636 16.5182 23.8132 14.8958 26.832 14.0215C29.4123 13.2742 32.118 13.0955 34.7646 13.4883C36.3614 11.3531 38.3993 9.57952 40.7471 8.29395C43.4954 6.78912 46.5786 6.00005 49.7119 6Z" stroke="#5E95CD" stroke-width="4" stroke-linecap="round" stroke-linejoin="round"/>
<path d="M43.375 47V34.0859H43.2812L40.7031 36.043V32.1641L43.375 30.0898H47.6055V47H43.375ZM55.0117 47.2578C53.9648 47.2578 53.0508 47.0547 52.2695 46.6484C51.4883 46.2344 50.8828 45.6562 50.4531 44.9141C50.0234 44.1719 49.8086 43.293 49.8086 42.2773V34.8125C49.8086 33.8047 50.0234 32.9297 50.4531 32.1875C50.8828 31.4375 51.4844 30.8594 52.2578 30.4531C53.0391 30.0391 53.957 29.832 55.0117 29.832C56.0586 29.832 56.9688 30.0391 57.7422 30.4531C58.5156 30.8594 59.1172 31.4375 59.5469 32.1875C59.9766 32.9297 60.1914 33.8047 60.1914 34.8125V42.2773C60.1914 43.293 59.9766 44.1719 59.5469 44.9141C59.1172 45.6562 58.5156 46.2344 57.7422 46.6484C56.9688 47.0547 56.0586 47.2578 55.0117 47.2578ZM55.0117 43.8477C55.1992 43.8477 55.3555 43.8047 55.4805 43.7188C55.6133 43.6328 55.7148 43.5156 55.7852 43.3672C55.8555 43.2109 55.8906 43.0312 55.8906 42.8281V34.25C55.8906 34.0469 55.8555 33.8711 55.7852 33.7227C55.7148 33.5664 55.6133 33.4492 55.4805 33.3711C55.3555 33.2852 55.1992 33.2422 55.0117 33.2422C54.8164 33.2422 54.6523 33.2852 54.5195 33.3711C54.3867 33.457 54.2852 33.5742 54.2148 33.7227C54.1523 33.8711 54.1211 34.0469 54.1211 34.25V42.8281C54.1211 43.0391 54.1523 43.2188 54.2148 43.3672C54.2852 43.5156 54.3867 43.6328 54.5195 43.7188C54.6523 43.8047 54.8164 43.8477 55.0117 43.8477ZM31.3887 70V66.0352L28.5371 55.9082H32.0234L33.1367 62.0605H33.2246L34.3086 55.9082H37.8047L34.9434 66.0352V70H31.3887ZM41.6719 70.1758C40.832 70.1758 40.1029 70.0163 39.4844 69.6973C38.8724 69.3783 38.3971 68.929 38.0586 68.3496C37.7266 67.7637 37.5605 67.0703 37.5605 66.2695V62.9004C37.5605 62.1061 37.7266 61.4193 38.0586 60.8398C38.3971 60.2539 38.8724 59.8014 39.4844 59.4824C40.1029 59.1634 40.8288 59.0039 41.6621 59.0039C42.4889 59.0039 43.2051 59.1569 43.8105 59.4629C44.416 59.7689 44.8848 60.2083 45.2168 60.7812C45.5488 61.3477 45.7148 62.0312 45.7148 62.832V65.459H39.2598V63.4766H44.0645L42.5117 65.293V62.2363C42.5117 62.0736 42.4792 61.9336 42.4141 61.8164C42.3555 61.6927 42.2676 61.6016 42.1504 61.543C42.0332 61.4779 41.8932 61.4453 41.7305 61.4453C41.5677 61.4453 41.4277 61.4779 41.3105 61.543C41.1934 61.6016 41.1022 61.6927 41.0371 61.8164C40.9785 61.9336 40.9492 62.0736 40.9492 62.2363V66.9727C40.9492 67.1224 40.9785 67.2559 41.0371 67.373C41.1022 67.4902 41.1934 67.5814 41.3105 67.6465C41.4342 67.7051 41.5775 67.7344 41.7402 67.7344C41.9095 67.7344 42.0527 67.7051 42.1699 67.6465C42.2871 67.5814 42.375 67.4935 42.4336 67.3828C42.4922 67.2721 42.5215 67.1484 42.5215 67.0117V66.4062H45.7148V66.7285C45.7083 67.2363 45.6139 67.7018 45.4316 68.125C45.2493 68.5482 44.9824 68.9128 44.6309 69.2188C44.2858 69.5247 43.8659 69.7624 43.3711 69.9316C42.8763 70.0944 42.3099 70.1758 41.6719 70.1758ZM49.5918 70.166C49.0514 70.166 48.5827 70.0521 48.1855 69.8242C47.7884 69.5964 47.4792 69.2676 47.2578 68.8379C47.0365 68.4017 46.9258 67.8776 46.9258 67.2656V66.8457C46.9258 66.1816 47.0658 65.6185 47.3457 65.1562C47.6322 64.6875 48.0651 64.3229 48.6445 64.0625C49.224 63.7956 49.9564 63.6296 50.8418 63.5645L53.5566 63.3594V65.3223L51.3301 65.4883C50.998 65.5143 50.7441 65.6087 50.5684 65.7715C50.3991 65.9277 50.3145 66.1589 50.3145 66.4648V66.9238C50.3145 67.1908 50.3763 67.3958 50.5 67.5391C50.6302 67.6758 50.8125 67.7441 51.0469 67.7441C51.2031 67.7441 51.3398 67.7083 51.457 67.6367C51.5807 67.5651 51.6751 67.4609 51.7402 67.3242C51.8118 67.181 51.8477 67.015 51.8477 66.8262V62.3047C51.8477 62.0703 51.7826 61.8848 51.6523 61.748C51.5286 61.6113 51.3496 61.543 51.1152 61.543C50.8613 61.543 50.6725 61.6113 50.5488 61.748C50.4251 61.8783 50.3568 62.0638 50.3438 62.3047V62.8516H47.2188V62.334C47.2188 61.6829 47.3783 61.1068 47.6973 60.6055C48.0163 60.1042 48.4753 59.7135 49.0742 59.4336C49.6732 59.1471 50.3958 59.0039 51.2422 59.0039C52.1146 59.0039 52.847 59.1406 53.4395 59.4141C54.0384 59.681 54.4941 60.0749 54.8066 60.5957C55.1191 61.1165 55.2754 61.7546 55.2754 62.5098V70H51.8477V68.8379H51.7695C51.6589 69.1048 51.5026 69.3392 51.3008 69.541C51.099 69.7363 50.8548 69.8893 50.5684 70C50.2819 70.1107 49.9564 70.166 49.5918 70.166ZM57.0332 70V59.1797H60.4707V60.9277H60.5488C60.666 60.2246 60.8939 59.7363 61.2324 59.4629C61.571 59.1829 61.9876 59.043 62.4824 59.043C62.6191 59.043 62.7428 59.0527 62.8535 59.0723C62.9642 59.0853 63.0716 59.1081 63.1758 59.1406V62.2168C63.0326 62.1712 62.8893 62.1354 62.7461 62.1094C62.6094 62.0833 62.4661 62.0703 62.3164 62.0703C61.8997 62.0703 61.5547 62.1549 61.2812 62.3242C61.0078 62.487 60.8027 62.7344 60.666 63.0664C60.5358 63.3919 60.4707 63.7988 60.4707 64.2871V70H57.0332ZM68.2832 70.1758C67.4173 70.1758 66.6686 70.0423 66.0371 69.7754C65.4121 69.502 64.9303 69.1211 64.5918 68.6328C64.2533 68.138 64.084 67.5586 64.084 66.8945V66.5332H67.4141V67.0703C67.4206 67.3307 67.4922 67.5228 67.6289 67.6465C67.7721 67.7702 67.9707 67.832 68.2246 67.832C68.3743 67.832 68.5046 67.8092 68.6152 67.7637C68.7259 67.7116 68.8105 67.6432 68.8691 67.5586C68.9342 67.474 68.9668 67.3698 68.9668 67.2461V67.1094C68.9668 66.8359 68.8724 66.6081 68.6836 66.4258C68.5013 66.2435 68.1855 66.0677 67.7363 65.8984L66.7695 65.5371C66.2031 65.3092 65.7344 65.0456 65.3633 64.7461C64.9922 64.4401 64.7155 64.0918 64.5332 63.7012C64.3509 63.304 64.2598 62.8548 64.2598 62.3535V62.2656C64.2598 61.6211 64.4258 61.0547 64.7578 60.5664C65.0964 60.0781 65.5684 59.6973 66.1738 59.4238C66.7793 59.1439 67.4857 59.0039 68.293 59.0039C69.0872 59.0039 69.7741 59.1406 70.3535 59.4141C70.9395 59.6875 71.3887 60.0716 71.7012 60.5664C72.0202 61.0547 72.1797 61.6243 72.1797 62.2754V62.6465H69.0547V62.1484C69.0482 61.8945 68.9798 61.696 68.8496 61.5527C68.7259 61.4095 68.5436 61.3379 68.3027 61.3379C68.1595 61.3379 68.0326 61.3639 67.9219 61.416C67.8177 61.4616 67.7363 61.5299 67.6777 61.6211C67.6191 61.7122 67.5898 61.8197 67.5898 61.9434V62.0898C67.5898 62.2591 67.6257 62.4089 67.6973 62.5391C67.7689 62.6628 67.8893 62.7767 68.0586 62.8809C68.2279 62.985 68.459 63.0924 68.752 63.2031L69.7188 63.5645C70.6432 63.9225 71.3171 64.362 71.7402 64.8828C72.1699 65.3971 72.3848 66.0384 72.3848 66.8066V66.8848C72.3848 67.5488 72.2155 68.1283 71.877 68.623C71.5384 69.1113 71.0599 69.4922 70.4414 69.7656C69.8294 70.0391 69.11 70.1758 68.2832 70.1758Z" fill="#5E95CD"/>
</svg>
