<svg width="17" height="16" viewBox="0 0 17 16" fill="none" xmlns="http://www.w3.org/2000/svg">
<path d="M8.89545 15.5051L8.88811 15.5065L8.84078 15.5298L8.82745 15.5325L8.81811 15.5298L8.77078 15.5065C8.76367 15.5042 8.75834 15.5054 8.75478 15.5098L8.75211 15.5165L8.74078 15.8018L8.74411 15.8151L8.75078 15.8238L8.82011 15.8731L8.83011 15.8758L8.83811 15.8731L8.90745 15.8238L8.91545 15.8131L8.91811 15.8018L8.90678 15.5171C8.905 15.51 8.90123 15.506 8.89545 15.5051ZM9.07211 15.4298L9.06345 15.4311L8.94011 15.4931L8.93345 15.4998L8.93145 15.5071L8.94345 15.7938L8.94678 15.8018L8.95211 15.8065L9.08611 15.8685C9.09456 15.8707 9.101 15.8689 9.10545 15.8631L9.10811 15.8538L9.08545 15.4445C9.08323 15.4365 9.07878 15.4316 9.07211 15.4298ZM8.59545 15.4311C8.59251 15.4293 8.589 15.4288 8.58565 15.4295C8.58229 15.4303 8.57936 15.4323 8.57745 15.4351L8.57345 15.4445L8.55078 15.8538C8.55123 15.8618 8.555 15.8671 8.56211 15.8698L8.57211 15.8685L8.70611 15.8065L8.71278 15.8011L8.71545 15.7938L8.72678 15.5071L8.72478 15.4991L8.71811 15.4925L8.59545 15.4311Z" fill="#717182"/>
<path d="M8.50065 1.33325C12.1827 1.33325 15.1673 4.31792 15.1673 7.99992C15.1673 11.6819 12.1827 14.6666 8.50065 14.6666C4.81865 14.6666 1.83398 11.6819 1.83398 7.99992C1.83398 4.31792 4.81865 1.33325 8.50065 1.33325ZM8.50065 2.66659C7.08616 2.66659 5.72961 3.22849 4.72941 4.22868C3.72922 5.22888 3.16732 6.58543 3.16732 7.99992C3.16732 9.41441 3.72922 10.771 4.72941 11.7712C5.72961 12.7713 7.08616 13.3333 8.50065 13.3333C9.91514 13.3333 11.2717 12.7713 12.2719 11.7712C13.2721 10.771 13.834 9.41441 13.834 7.99992C13.834 6.58543 13.2721 5.22888 12.2719 4.22868C11.2717 3.22849 9.91514 2.66659 8.50065 2.66659ZM8.50065 3.99992C8.66394 3.99994 8.82154 4.05989 8.94357 4.1684C9.06559 4.2769 9.14355 4.42642 9.16265 4.58859L9.16732 4.66659V7.72392L10.972 9.52859C11.0915 9.64856 11.161 9.80954 11.1661 9.97884C11.1713 10.1481 11.1118 10.3131 10.9998 10.4401C10.8878 10.5671 10.7316 10.6468 10.563 10.6629C10.3944 10.6789 10.226 10.6302 10.092 10.5266L10.0293 10.4713L8.02932 8.47125C7.9257 8.36755 7.85916 8.23259 7.83998 8.08725L7.83398 7.99992V4.66659C7.83398 4.48977 7.90422 4.32021 8.02925 4.19518C8.15427 4.07016 8.32384 3.99992 8.50065 3.99992Z" fill="#717182"/>
</svg>
