<svg width="25" height="24" viewBox="0 0 25 24" fill="none" xmlns="http://www.w3.org/2000/svg">
<path d="M23.325 5.67557C23.0633 4.62241 22.2922 3.79297 21.3132 3.51149C19.5385 3 12.4227 3 12.4227 3C12.4227 3 5.30688 3 3.53225 3.51149C2.55321 3.79301 1.78212 4.62241 1.52042 5.67557C1.04492 7.58449 1.04492 11.5673 1.04492 11.5673C1.04492 11.5673 1.04492 15.5501 1.52042 17.459C1.78212 18.5122 2.55321 19.307 3.53225 19.5886C5.30688 20.1 12.4227 20.1 12.4227 20.1C12.4227 20.1 19.5385 20.1 21.3132 19.5886C22.2922 19.307 23.0633 18.5122 23.325 17.459C23.8005 15.5501 23.8005 11.5673 23.8005 11.5673C23.8005 11.5673 23.8005 7.58449 23.325 5.67557ZM10.0954 15.1834V7.95121L16.0429 11.5674L10.0954 15.1834Z" fill="white"/>
</svg>
